{"title":"Free Birds 2013 CAM XviD-VAiN [P2PDL]","uid":9204880,"size":749114526,"categoryP":"video","categoryS":"movies","magnet":"?xt=urn:btih:1d1eb33d9490e2b3c976d7e737c93937bf650494&amp;dn=Free+Birds+2013+CAM+XviD-VAiN+%5BP2PDL%5D&amp;tr=udp%3A%2F%2Ftracker.openbittorrent.com%3A80&amp;tr=udp%3A%2F%2Fopen.demonii.com%3A1337&amp;tr=udp%3A%2F%2Ftracker.coppersurfer.tk%3A6969&amp;tr=udp%3A%2F%2Fexodus.desync.com%3A6969","seeders":1,"leechers":0,"uploader":"TeX","files":4,"time":1384673150,"description":"[IMG]http://i.imgur.com/rjk9H02.jpg[/IMG]\n\nVAiN . P R E S E N T S . . .\n\nFree.Birds.2013.CAM.XviD-VAiN\n\niMDB........: http://www.imdb.com/title/tt1621039/\nPLOT........: Two turkeys from opposite sides of the tracks must put aside their differences and team up to travel back in time to change the course of history - and get turkey off the holiday menu for good. \n\nT E C H N i C A L . i N F O . . .      \nGeneral\nFormat                                   : AVI\nFormat/Info                              : Audio Video Interleave\nFile size                                : 704 MiB\nDuration                                 : 1h 23mn\nOverall bit rate                         : 1 177 Kbps\nWriting application                      : VirtualDubMod 1.5.10.2 (build 2540/release)\nWriting library                          : VirtualDubMod build 2540/release\n\nVideo\nID                                       : 0\nFormat                                   : MPEG-4 Visual\nFormat profile                           : Advanced Simple@L5\nFormat settings, BVOP                    : 2\nFormat settings, QPel                    : No\nFormat settings, GMC                     : No warppoints\nFormat settings, Matrix                  : Default (MPEG)\nMuxing mode                              : Packed bitstream\nCodec ID                                 : XVID\nCodec ID/Hint                            : XviD\nDuration                                 : 1h 23mn\nBit rate                                 : 1 037 Kbps\nWidth                                    : 640 pixels\nHeight                                   : 356 pixels\nDisplay aspect ratio                     : 16:9\nFrame rate                               : 29.970 fps\nColor space                              : YUV\nChroma subsampling                       : 4:2:0\nBit depth                                : 8 bits\nScan type                                : Progressive\nCompression mode                         : Lossy\nBits/(Pixel*Frame)                       : 0.152\nStream size                              : 620 MiB (88%)\nWriting library                          : XviD 1.2.0.dev47 (UTC 2006-11-01)\n\nAudio\nID                                       : 1\nFormat                                   : MPEG Audio\nFormat version                           : Version 1\nFormat profile                           : Layer 3\nMode                                     : Joint stereo\nMode extension                           : MS Stereo\nCodec ID                                 : 55\nCodec ID/Hint                            : MP3\nDuration                                 : 1h 23mn\nBit rate mode                            : Constant\nBit rate                                 : 128 Kbps\nChannel(s)                               : 2 channels\nSampling rate                            : 48.0 KHz\nCompression mode                         : Lossy\nStream size                              : 76.5 MiB (11%)\nAlignment                                : Aligned on interleaves\nInterleave, duration                     : 33 ms (1.00 video frame)\nInterleave, preload duration             : 504 ms\nWriting library                          : LAME3.99r\nEncoding settings                        : -m j -V 4 -q 2 -lowpass 17 -b 128\n\n\n\n\n\n\n\nE N C O D E R S . N O T E S . . .       \n\nSOURCE......: \nSAMPLE......: Yes\nADDED NOTE..:  \n\nvideo was meh. seen lots of red as well as fooked whites. added little denoise, sharp, levels tweaked some rgb.  this looks sexy.  \n\nas for audio, it's cam so took source eq'ed, adjusted levels and made voice's better to hear. \n\nv.6a.5 m.5 nothing we haven't seen b4\n\n\nS C R E E N . S H O T S . . .\n\n[IMG]http://i.imgur.com/mO3CFCw.png[/IMG]\n\n[IMG]http://i.imgur.com/yIHsCaI.png[/IMG]\n\n[IMG]http://i.imgur.com/IjELbAN.png[/IMG]\n\n[IMG]http://i.imgur.com/fb65rHj.png[/IMG]\n\n[IMG]http://i.imgur.com/WwRLmfJ.png[/IMG]\n\n\n\n\nGREETZ:\n\nW4NTED worthy rival grps to add here. ;) SUCKAS!!!!!!!\n","torrent":{"xt":"urn:btih:1d1eb33d9490e2b3c976d7e737c93937bf650494","amp;dn":"Free+Birds+2013+CAM+XviD-VAiN+%5BP2PDL%5D","amp;tr":["udp%3A%2F%2Ftracker.openbittorrent.com%3A80","udp%3A%2F%2Fopen.demonii.com%3A1337","udp%3A%2F%2Ftracker.coppersurfer.tk%3A6969","udp%3A%2F%2Fexodus.desync.com%3A6969"],"infoHash":"1d1eb33d9490e2b3c976d7e737c93937bf650494","infoHashBuffer":{"type":"Buffer","data":[29,30,179,61,148,144,226,179,201,118,215,231,55,201,57,55,191,101,4,148]},"announce":[],"urlList":[]}}